# xmcd
# 
# Track frame offsets:
#     150
#     20846
#     40927
#     56096
#     78235
#     100351
#     117234
#     130905
#     155921
#     176202
#     199528
#     217673
# 
# Disc length: 3142
# 
# Revision: 2
# Processed by: cddbd v1.5.2PL0 Copyright (c) Steve Scherf et al.
# Submitted via: fre:ac v1.0.17
# 
DISCID=a70c440c
DTITLE=Various Artist - Love Songs CD 1
DYEAR=2007
DGENRE=Pop
TTITLE0=D'Arby, Terence Trent - Sign your name
TTITLE1=Stigers, Curtis - I wonder why
TTITLE2=David, F. R. - Words
TTITLE3=Carmen, Eric - All by myself
TTITLE4=Martin, Ricky - She's all I ever had
TTITLE5=Crash Test Dummies - MMM MMM MMM MMM
TTITLE6=Logan, Johnny - Hold me now
TTITLE7=Mr. Mister - Broken wings
TTITLE8=Braxton, Toni - Un - break my heart
TTITLE9=O'Connor, Sinéad - Nothing compares 2 U
TTITLE10=Hot Chocolate - It started with a kiss
TTITLE11=Gaye, Marvin - Sexual healing
EXTD=
EXTT0=
EXTT1=
EXTT2=
EXTT3=
EXTT4=
EXTT5=
EXTT6=
EXTT7=
EXTT8=
EXTT9=
EXTT10=
EXTT11=
PLAYORDER=
